<svg xmlns="http://www.w3.org/2000/svg" viewBox="0 0 640 800" role="img" aria-label="Hanuman symbolic portrait"><defs><linearGradient id="b" x1="0" y1="0" x2="1" y2="1"><stop stop-color="#e8832a"/><stop offset="1" stop-color="#d6a842"/></linearGradient><filter id="g"><feGaussianBlur stdDeviation="10" result="b"/><feMerge><feMergeNode in="b"/><feMergeNode in="SourceGraphic"/></feMerge></filter></defs><rect width="640" height="800" rx="48" fill="#071426"/><circle cx="320" cy="220" r="150" fill="url(#b)" opacity=".28" filter="url(#g)"/><circle cx="320" cy="235" r="92" fill="#f0c78a"/><path d="M188 670c10-200 98-300 132-300s122 100 132 300Z" fill="url(#b)"/><path d="M255 220c30-48 100-48 130 0-10-80-30-115-65-115s-55 35-65 115Z" fill="#17243b"/><path d="M280 255h15M345 255h15" stroke="#312419" stroke-width="8" stroke-linecap="round"/><path d="M300 310c14 8 26 8 40 0" fill="none" stroke="#8d5035" stroke-width="7" stroke-linecap="round"/><circle cx="320" cy="120" r="18" fill="#d6a842"/><text x="320" y="730" text-anchor="middle" fill="#ffe39a" font-family="Georgia,serif" font-size="42">Hanuman</text><text x="320" y="520" text-anchor="middle" fill="#fff3c9" font-family="Georgia,serif" font-size="110" opacity=".9">Bhakti</text></svg>